<?xml version="1.0" encoding="utf-8"?>
<!-- Generator: Adobe Illustrator 24.0.1, SVG Export Plug-In . SVG Version: 6.00 Build 0)  -->
<svg version="1.1" id="Layer_1" xmlns="http://www.w3.org/2000/svg" xmlns:xlink="http://www.w3.org/1999/xlink" x="0px" y="0px"
	 viewBox="0 0 100 100" style="enable-background:new 0 0 100 100;" xml:space="preserve">
<style type="text/css">
	.st0{fill:none;stroke:#000000;stroke-width:5;stroke-miterlimit:10;}
	.st1{fill:none;stroke:#000000;stroke-width:5;stroke-linecap:round;stroke-miterlimit:10;}
	.st2{fill:none;stroke:#000000;stroke-width:5.2001;stroke-linecap:round;stroke-miterlimit:10;}
	.st3{fill:none;stroke:#000000;stroke-width:5.2001;stroke-linecap:round;stroke-miterlimit:10;stroke-dasharray:0,4.4246;}
</style>
<g>
	<circle class="st0" cx="49.5" cy="49.4" r="29.8"/>
	<line class="st1" x1="49.5" y1="23.9" x2="49.5" y2="26.7"/>
	<line class="st1" x1="49.5" y1="72.1" x2="49.5" y2="75"/>
	<line class="st1" x1="75.1" y1="49.4" x2="72.2" y2="49.4"/>
	<line class="st1" x1="26.8" y1="49.4" x2="24" y2="49.4"/>
	<circle class="st1" cx="49.5" cy="48" r="4.3"/>
	<line class="st1" x1="49.5" y1="43.8" x2="49.5" y2="35.2"/>
	<line class="st1" x1="46.5" y1="51" x2="33.9" y2="63.6"/>
</g>
<g>
	<path class="st2" d="M20.1,18.5c7.6-7.4,18-11.9,29.4-11.9c23.6,0,42.7,19.1,42.7,42.7"/>
	<polyline class="st2" points="31.8,18.4 20.1,18.4 20.1,6.7 	"/>
	<path class="st3" d="M92.3,49.4c0,23.6-19.1,42.7-42.7,42.7S6.8,73,6.8,49.4"/>
</g>
</svg>
